<?xml version="1.0" standalone="no"?>
<!DOCTYPE svg PUBLIC "-//W3C//DTD SVG 20010904//EN"
 "http://www.w3.org/TR/2001/REC-SVG-20010904/DTD/svg10.dtd">
<svg version="1.0" xmlns="http://www.w3.org/2000/svg"
 width="500.000000pt" height="500.000000pt" viewBox="0 0 500.000000 500.000000"
 preserveAspectRatio="xMidYMid meet">
<metadata>
Created by potrace 1.14, written by Peter Selinger 2001-2017
</metadata>
<g transform="translate(0.000000,500.000000) scale(0.100000,-0.100000)"
fill="#000000" stroke="none">
<path d="M2286 4560 c-715 -82 -1327 -509 -1641 -1145 -553 -1118 6 -2469
1188 -2874 646 -221 1357 -107 1910 306 56 43 156 131 222 198 518 521 718
1258 535 1970 -151 583 -543 1067 -1085 1338 -285 142 -545 205 -875 212 -96
2 -211 0 -254 -5z m604 -63 c429 -95 755 -270 1045 -561 169 -169 279 -321
385 -533 253 -506 280 -1121 74 -1643 -276 -695 -909 -1188 -1644 -1279 -126
-16 -415 -14 -539 4 -427 62 -805 248 -1123 554 -328 314 -539 729 -602 1180
-21 145 -21 442 -1 575 123 816 720 1477 1515 1677 207 52 272 58 535 55 213
-3 253 -7 355 -29z"/>
<path d="M1376 3544 l-26 -27 0 -1019 0 -1019 25 -24 24 -25 1100 0 1100 0 26
23 25 22 0 1025 1 1025 -26 23 -26 22 -1098 0 -1098 0 -27 -26z m2114 -304 l0
-160 -990 0 -990 0 0 160 0 160 990 0 990 0 0 -160z m0 -990 l0 -660 -987 2
-988 3 -3 658 -2 657 990 0 990 0 0 -660z"/>
<path d="M2775 3295 c-51 -50 -15 -135 58 -135 45 0 77 34 77 82 0 70 -86 103
-135 53z"/>
<path d="M3022 3297 c-30 -32 -29 -87 1 -115 50 -47 137 -10 137 58 0 69 -91
107 -138 57z"/>
<path d="M3282 3304 c-64 -44 -36 -143 40 -144 40 0 57 9 74 42 39 75 -46 150
-114 102z"/>
<path d="M2022 2593 c-31 -15 -234 -222 -255 -258 -20 -36 5 -73 132 -198 111
-110 132 -127 160 -127 45 0 67 14 80 50 15 44 3 64 -93 160 l-86 84 90 92
c79 80 90 96 90 127 0 67 -57 101 -118 70z"/>
<path d="M2572 2598 c-27 -13 -262 -473 -262 -512 0 -13 10 -35 21 -50 18 -23
27 -27 68 -24 l46 3 122 240 c76 150 122 252 123 271 0 60 -64 99 -118 72z"/>
<path d="M2909 2599 c-27 -10 -49 -46 -49 -81 0 -13 35 -57 92 -114 l91 -94
-91 -94 c-101 -104 -111 -129 -71 -180 16 -20 29 -26 61 -26 40 0 47 6 170
128 171 172 171 162 11 324 -107 108 -157 149 -180 147 -4 0 -20 -5 -34 -10z"/>
</g>
</svg>
